<svg height="512pt" viewBox="0 0 512 512" width="512pt" xmlns="http://www.w3.org/2000/svg"><path d="m512 256c0 141.386719-114.613281 256-256 256s-256-114.613281-256-256 114.613281-256 256-256 256 114.613281 256 256zm0 0" fill="#ff6155"/><path d="m510.097656 287.261719-175.699218-175.703125-42.195313 293.453125 79.433594 79.433593c74.449219-37.757812 127.945312-110.835937 138.460937-197.183593zm0 0" fill="#ed2415"/><path d="m256 512c61.3125 0 117.585938-21.566406 161.664062-57.511719l-26.921874-42.175781-91.066407-41.101562c-8.398437-3.792969-13.988281-13.6875-13.988281-24.765626v-24.441406h-59.226562v24.441406c0 11.078126-5.589844 20.972657-13.992188 24.765626l-91.066406 41.101562-25.648438 43.320312c43.867188 35.257813 99.585938 56.367188 160.246094 56.367188zm0 0" fill="#a260e5"/><path d="m417.664062 454.488281-26.921874-42.175781-91.066407-41.101562c-8.398437-3.792969-13.988281-13.6875-13.988281-24.765626v-24.441406h-30.089844v189.992188c.132813 0 .269532.003906.402344.003906 61.3125 0 117.582031-21.566406 161.664062-57.511719zm0 0" fill="#7a3eb5"/><path d="m265.976562 453.746094h-19.953124c-53.144532 0-96.230469-43.085938-96.230469-96.230469v-174.308594c0-58.65625 47.550781-106.207031 106.207031-106.207031s106.207031 47.550781 106.207031 106.207031v174.308594c0 53.144531-43.085937 96.230469-96.230469 96.230469zm0 0" fill="#613394"/><path d="m256 77c-.136719 0-.269531.003906-.40625.003906v376.742188h10.382812c53.144532 0 96.226563-43.085938 96.226563-96.230469v-174.308594c.003906-58.65625-47.546875-106.207031-106.203125-106.207031zm0 0" fill="#4b1b7a"/><path d="m256 77c-34.023438 0-64.304688 16-83.742188 40.882812-.035156 1.101563-.058593 2.210938-.058593 3.320313v174.3125c0 53.144531 43.085937 96.230469 96.230469 96.230469h19.953124c29.652344 0 56.171876-13.417969 73.824219-34.507813v-174.03125c0-58.65625-47.550781-106.207031-106.207031-106.207031zm0 0" fill="#7a3eb5"/><path d="m256 77c-.136719 0-.269531.003906-.40625.007812v313.882813c4.199219.5625 8.484375.855469 12.835938.855469h19.953124c29.652344 0 56.171876-13.417969 73.824219-34.507813v-174.03125c0-58.65625-47.550781-106.207031-106.207031-106.207031zm0 0" fill="#613394"/><path d="m256 127.097656c-46.28125 0-83.800781 37.515625-83.800781 83.796875v38.777344c0 31.675781 17.714843 60.691406 45.890625 75.164063l19.011718 9.765624c11.863282 6.09375 25.933594 6.09375 37.792969 0l19.011719-9.765624c28.175781-14.472657 45.890625-43.488282 45.890625-75.164063v-38.777344c.003906-46.28125-37.515625-83.796875-83.796875-83.796875zm0 0" fill="#ffbeaa"/><path d="m256 127.097656c-.136719 0-.269531.007813-.40625.007813v212.054687c6.621094.066406 13.25-1.449218 19.300781-4.558594l19.015625-9.765624c28.175782-14.476563 45.890625-43.488282 45.890625-75.164063v-38.777344c0-46.28125-37.519531-83.796875-83.800781-83.796875zm0 0" fill="#faa68e"/></svg>